# Alias OBJ Model File
# Exported from SketchUp, (c) 2000-2012 Trimble Navigation Limited
# File units = meters

mtllib Tool.mtl

g Mesh1 Model

usemtl Color_I01
v -0.1 -0.3 -0.005
vt 3.93701 -11.811
vn 0 0 -1
v -0.1 0 -0.005
vt 3.93701 0
v 0.1 0 -0.005
vt -3.93701 0
v 0.1 -0.3 -0.005
vt -3.93701 -11.811
f 1/1/1 2/2/1 3/3/1 4/4/1 

usemtl Color_F02
vt 0 -0.19685
vn -1 0 0
vt 11.811 -0.19685
v -0.1 -0.3 0.005
vt 11.811 0.19685
v -0.1 0 0.005
vt 0 0.19685
f 2/5/2 1/6/2 5/7/2 6/8/2 

usemtl Color_A01
vt -3.93701 -0.19685
vn 0 -1 0
vt 3.93701 -0.19685
v 0.1 -0.3 0.005
vt 3.93701 0.19685
vt -3.93701 0.19685
f 1/9/3 4/10/3 7/11/3 5/12/3 

usemtl Color_F02
vt -11.811 -0.19685
vn 1 0 0
v 0.1 0 0.005
vt -11.811 0.19685
f 4/13/4 3/5/4 8/8/4 7/14/4 

usemtl Color_A01
vn 0 1 0
f 3/9/5 2/10/5 6/11/5 8/12/5 

usemtl Color_I01
vn 0 0 1
f 6/3/6 5/4/6 7/1/6 8/2/6 

